<svg width="134" height="36" viewBox="0 0 134 36" fill="none" xmlns="http://www.w3.org/2000/svg">
<g clip-path="url(#clip0_453_636)">
<path d="M42.5815 22.7363C42.473 21.8424 42.4829 21.8404 41.5553 21.8384C39.3253 21.8364 37.0933 21.8305 34.8633 21.8364C34.4923 21.8364 34.2535 21.7713 34.2555 21.3214C34.2693 18.7026 34.2851 16.0818 34.2614 13.463C34.2574 13.0683 34.3699 12.9637 34.6541 12.944H36.1638C37.9222 12.944 39.6786 12.9381 41.4369 12.9539C41.9125 12.9578 42.0645 12.7822 42.0625 12.3401C42.0625 12.2927 42.0625 12.2474 42.0625 12.2C42.0665 12.1664 42.0684 12.1329 42.0684 12.0993V4.04168C42.0684 1.80968 40.2588 1.47271e-05 38.0268 1.47271e-05C35.7948 1.47271e-05 33.9851 1.80968 33.9851 4.04168V11.7362V11.7441C33.9851 12.0934 33.5944 12.3046 33.2983 12.1151C33.174 12.0362 33.0556 11.9592 32.9392 11.8803C31.4433 10.8738 29.9494 9.86143 28.4515 8.85694C26.2807 7.40052 24.1059 5.94607 21.9331 4.4936C20.3188 3.41411 18.7381 2.2774 17.0784 1.2729C15.4661 0.298008 13.6189 -0.00787914 11.7757 1.47271e-05C10.1377 0.0079086 8.54316 0.402602 7.00583 1.06963C2.29713 3.11612 -0.702537 8.5471 0.142107 13.5913C0.224993 14.0807 0.436154 14.2228 0.913733 14.2189C3.19704 14.1991 5.48231 14.2248 7.76561 14.1991C8.36357 14.1912 8.43462 14.4419 8.43462 15.099C8.43462 17.406 8.43659 19.9143 8.43659 22.17C8.43659 22.7502 8.41883 22.9791 8.13465 23.0541H1.50972C1.45644 23.0541 1.40513 23.06 1.35579 23.0679C1.32816 23.0679 1.30251 23.0679 1.27488 23.0679C0.779538 23.0639 0.627581 23.2376 0.631527 23.7172C0.649289 25.5762 0.62166 27.4352 0.655209 29.2942C0.655209 29.3514 0.66705 29.4106 0.680864 29.4718V31.9603C0.680864 34.1923 2.49053 36.002 4.72253 36.002C6.95452 36.002 8.76419 34.1923 8.76419 31.9603V24.1414C8.76419 23.8652 9.07205 23.6994 9.30097 23.8513C9.30097 23.8513 9.30295 23.8513 9.30492 23.8533C11.0672 25.0354 12.8355 26.2077 14.5859 27.4036C17.6093 29.4678 20.6208 31.5498 23.6382 33.622C25.5663 34.9442 27.6582 35.8619 30.0184 35.9803C33.9614 36.1796 37.2946 34.7962 39.8503 31.7985C42.0586 29.2073 42.9979 26.1564 42.5815 22.7344V22.7363ZM30.2671 23.7645C29.0139 25.7044 26.4248 26.2629 24.4848 25.0098C23.6895 24.4967 23.1271 23.7566 22.8251 22.9317C22.2272 21.7397 21.3115 20.6859 20.1097 19.9103C18.8999 19.1288 17.554 18.7302 16.214 18.6789C15.3437 18.7401 14.4458 18.5289 13.6564 18.0197C11.7145 16.7666 11.158 14.1774 12.4112 12.2375C13.6643 10.2956 16.2535 9.73908 18.1934 10.9922C18.9927 11.5073 19.5571 12.2513 19.8571 13.0802C20.455 14.2702 21.3707 15.322 22.5706 16.0976C23.7645 16.8692 25.0907 17.2679 26.4169 17.3271C27.3029 17.254 28.2186 17.4613 29.0238 17.9823C30.9657 19.2354 31.5222 21.8246 30.2691 23.7645H30.2671Z" fill="#AAE053"/>
<path d="M51.5628 24.1063H48.498V10.0828C48.498 7.79752 49.7966 6.26611 52.522 6.26611C54.9631 6.26611 56.0525 7.51335 56.7807 9.51247L61.8959 20.704C62.1031 21.1204 62.4406 21.4302 63.0129 21.4302C63.6622 21.4302 64.0509 21.0415 64.0509 20.4435V6.57792H67.1414V20.5738C67.1414 22.8847 65.8172 24.4161 63.1175 24.4161C60.6763 24.4161 59.5593 23.1689 58.8331 21.1697L53.7179 9.97821C53.485 9.45918 53.1732 9.22434 52.6265 9.22434C51.926 9.22434 51.5628 9.61311 51.5628 10.2367V24.1043V24.1063Z" fill="#014547"/>
<path d="M75.9725 6.57812V18.2887C75.9725 20.0293 76.8547 21.0417 78.8814 21.0417H81.9975C83.971 21.0417 84.8808 20.0293 84.8808 18.2887V6.57812H87.8923V18.5235C87.8923 22.2119 85.9445 24.1065 82.2047 24.1065H78.5183C74.7786 24.1065 72.8584 22.2119 72.8584 18.5235V6.57812H75.9745H75.9725Z" fill="#014547"/>
<path d="M97.0038 6.57812V13.7201H105.963V6.57812H109.054V24.1065H105.963V16.7829H97.0038V24.1065H93.939V6.57812H97.0038Z" fill="#014547"/>
<path d="M116.971 24.1063H113.594L119.748 8.52573C120.397 6.88973 121.591 6.26611 123.436 6.26611C125.281 6.26611 126.447 6.88973 127.071 8.52573L132.991 24.1063H129.589L124.267 10.0058C124.111 9.58943 123.825 9.40787 123.41 9.40787C122.996 9.40787 122.71 9.58943 122.528 10.0058L116.971 24.1063Z" fill="#014547"/>
<path d="M48.4639 29.3845V26.1855H49.0362L50.4137 28.6484L50.3604 28.7057V26.1855H50.8715V29.3845H50.2952L48.9217 26.9591L48.975 26.9019V29.3845H48.4639Z" fill="#014547"/>
<path d="M52.6478 29.4198C52.3241 29.4198 52.0715 29.3309 51.8919 29.1533C51.7123 28.9757 51.6235 28.7231 51.6235 28.3955V28.137C51.6235 27.7976 51.7104 27.5331 51.8821 27.3476C52.0538 27.1621 52.2965 27.0674 52.6083 27.0674C52.9023 27.0674 53.1313 27.1759 53.2931 27.393C53.4549 27.6101 53.5358 27.914 53.5358 28.3067V28.4567H51.9827V28.0719H53.0464V28.0482C53.0306 27.8903 52.9852 27.766 52.9102 27.6772C52.8352 27.5884 52.7346 27.543 52.6083 27.543C52.4504 27.543 52.3281 27.5923 52.2412 27.691C52.1544 27.7897 52.111 27.9298 52.111 28.1133V28.4034C52.111 28.5771 52.1583 28.7093 52.2511 28.8021C52.3458 28.8948 52.4761 28.9422 52.6478 28.9422C52.7346 28.9422 52.8195 28.9264 52.9043 28.8928C52.9892 28.8593 53.0642 28.8139 53.1313 28.7547L53.4746 29.0764C53.3582 29.1849 53.228 29.2698 53.0839 29.329C52.9398 29.3882 52.7938 29.4178 52.6478 29.4178V29.4198Z" fill="#014547"/>
<path d="M54.6895 27.103V28.4924C54.6895 28.6266 54.725 28.7312 54.798 28.8062C54.8691 28.8811 54.9717 28.9167 55.1019 28.9167C55.2322 28.9167 55.3328 28.8811 55.4039 28.8101C55.4749 28.7391 55.5104 28.6404 55.5104 28.5101L55.542 28.9995C55.5025 29.1081 55.4335 29.2048 55.3348 29.2916C55.2361 29.3765 55.1059 29.4199 54.946 29.4199C54.6974 29.4199 54.5059 29.339 54.3698 29.1791C54.2336 29.0173 54.1665 28.7923 54.1665 28.5022V27.1011H54.6934L54.6895 27.103ZM55.5085 29.3883V27.103H56.0334V29.3883H55.5085Z" fill="#014547"/>
<path d="M56.7842 29.3886V27.1034H57.3328V29.3886H56.7842ZM58.0571 27.6914C58.0235 27.654 57.9801 27.6244 57.9288 27.6046C57.8775 27.5849 57.8163 27.575 57.7492 27.575C57.617 27.575 57.5144 27.6145 57.4413 27.6934C57.3683 27.7724 57.3328 27.8809 57.3328 28.021L57.2874 27.504C57.3525 27.3698 57.4394 27.2632 57.5459 27.1862C57.6525 27.1093 57.7689 27.0718 57.8972 27.0718C57.9979 27.0718 58.0867 27.0876 58.1676 27.1172C58.2485 27.1468 58.3195 27.1922 58.3787 27.2514L58.0571 27.6934V27.6914Z" fill="#014547"/>
<path d="M59.4974 29.42C59.2369 29.42 59.0395 29.3627 58.9093 29.2463C58.779 29.1299 58.7119 28.9523 58.7119 28.7135C58.7119 28.4747 58.777 28.3168 58.9093 28.2043C59.0415 28.0918 59.2388 28.0366 59.5033 28.0366H60.115L60.1466 28.4451H59.5052C59.4007 28.4451 59.3237 28.4668 59.2704 28.5102C59.2191 28.5536 59.1915 28.6227 59.1915 28.7135C59.1915 28.8082 59.225 28.8793 59.2921 28.9266C59.3592 28.974 59.4618 28.9957 59.598 28.9957C59.7638 28.9957 59.8881 28.9779 59.971 28.9404C60.0539 28.9029 60.0933 28.8457 60.0933 28.7687L60.1387 29.0944C60.1131 29.1693 60.0697 29.2305 60.0045 29.2779C59.9394 29.3253 59.8644 29.3608 59.7776 29.3845C59.6888 29.4081 59.596 29.42 59.4934 29.42H59.4974ZM60.0953 29.3864V27.9379C60.0953 27.8096 60.0578 27.711 59.9809 27.6399C59.9059 27.5689 59.7993 27.5333 59.6612 27.5333C59.5723 27.5333 59.4855 27.5472 59.4007 27.5748C59.3158 27.6024 59.2388 27.6419 59.1717 27.6932L58.8224 27.3991C58.9112 27.2946 59.0296 27.2136 59.1757 27.1564C59.3217 27.0992 59.4816 27.0696 59.6612 27.0696C59.9552 27.0696 60.1821 27.1446 60.342 27.2926C60.5018 27.4406 60.5828 27.6498 60.5828 27.9201V29.3884H60.0973L60.0953 29.3864Z" fill="#014547"/>
<path d="M61.8594 26.1877V28.7177C61.8594 28.771 61.8733 28.8144 61.9009 28.846C61.9285 28.8776 61.968 28.8914 62.0193 28.8914H62.1752V29.3946H61.889C61.7134 29.3946 61.5753 29.3413 61.4786 29.2368C61.3819 29.1322 61.3325 28.9822 61.3325 28.7907V26.1897H61.8594V26.1877Z" fill="#014547"/>
<path d="M65.2193 29.4201C64.8562 29.4201 64.574 29.3155 64.3747 29.1083C64.1754 28.901 64.0747 28.607 64.0747 28.2281V26.1855H64.6016V28.2439C64.6016 28.4531 64.6549 28.6129 64.7635 28.7274C64.872 28.8418 65.0239 28.8991 65.2193 28.8991C65.4147 28.8991 65.5706 28.8418 65.6791 28.7274C65.7877 28.6129 65.8429 28.4511 65.8429 28.2439V26.1855H66.3699V28.2281C66.3699 28.607 66.2692 28.8991 66.0699 29.1083C65.8706 29.3174 65.5864 29.4201 65.2213 29.4201H65.2193Z" fill="#014547"/>
<path d="M67.1406 29.3884V27.1031H67.6675V29.3884H67.1406ZM68.4944 29.3884V28.003C68.4944 27.8649 68.4569 27.7583 68.3839 27.6853C68.3109 27.6103 68.2063 27.5748 68.0721 27.5748C67.9379 27.5748 67.8432 27.6103 67.7721 27.6814C67.7011 27.7524 67.6656 27.8491 67.6656 27.9754L67.6202 27.5018C67.6873 27.3636 67.7741 27.2571 67.8787 27.1821C67.9833 27.1071 68.1076 27.0696 68.2537 27.0696C68.4984 27.0696 68.6878 27.1505 68.822 27.3123C68.9562 27.4741 69.0233 27.7031 69.0233 28.0011V29.3884H68.4964H68.4944Z" fill="#014547"/>
<path d="M69.7583 26.7125V26.1855H70.2832V26.7125H69.7583ZM69.7583 29.3865V27.1012H70.2832V29.3865H69.7583Z" fill="#014547"/>
<path d="M71.8233 28.6347L72.3384 27.1033H72.8732L72.0148 29.3885H71.6319L70.7734 27.1033H71.3082L71.8233 28.6347Z" fill="#014547"/>
<path d="M74.2967 29.4198C73.973 29.4198 73.7204 29.3309 73.5408 29.1533C73.3613 28.9757 73.2725 28.7231 73.2725 28.3955V28.137C73.2725 27.7976 73.3593 27.5331 73.531 27.3476C73.7027 27.1621 73.9454 27.0674 74.2572 27.0674C74.5513 27.0674 74.7802 27.1759 74.942 27.393C75.1038 27.6101 75.1848 27.914 75.1848 28.3067V28.4567H73.6316V28.0719H74.6953V28.0482C74.6795 27.8903 74.6342 27.766 74.5592 27.6772C74.4842 27.5884 74.3835 27.543 74.2572 27.543C74.0993 27.543 73.977 27.5923 73.8902 27.691C73.8033 27.7897 73.7599 27.9298 73.7599 28.1133V28.4034C73.7599 28.5771 73.8073 28.7093 73.9 28.8021C73.9947 28.8948 74.125 28.9422 74.2967 28.9422C74.3835 28.9422 74.4684 28.9264 74.5532 28.8928C74.6381 28.8593 74.7131 28.8139 74.7802 28.7547L75.1236 29.0764C75.0071 29.1849 74.8769 29.2698 74.7328 29.329C74.5888 29.3882 74.4427 29.4178 74.2967 29.4178V29.4198Z" fill="#014547"/>
<path d="M75.8696 29.3886V27.1034H76.4183V29.3886H75.8696ZM77.1425 27.6914C77.109 27.654 77.0655 27.6244 77.0142 27.6046C76.9629 27.5849 76.9017 27.575 76.8347 27.575C76.7024 27.575 76.5998 27.6145 76.5268 27.6934C76.4538 27.7724 76.4183 27.8809 76.4183 28.021L76.3729 27.504C76.438 27.3698 76.5248 27.2632 76.6314 27.1862C76.738 27.1093 76.8544 27.0718 76.9827 27.0718C77.0833 27.0718 77.1721 27.0876 77.253 27.1172C77.3339 27.1468 77.405 27.1922 77.4642 27.2514L77.1425 27.6934V27.6914Z" fill="#014547"/>
<path d="M78.7464 29.42C78.5432 29.42 78.3537 29.3904 78.1781 29.3351C78.0024 29.2779 77.8505 29.195 77.7183 29.0865L78.038 28.6898C78.1544 28.7727 78.2748 28.8339 78.3952 28.8773C78.5155 28.9207 78.632 28.9404 78.7484 28.9404C78.9083 28.9404 79.0306 28.9187 79.1135 28.8753C79.1964 28.8319 79.2378 28.7687 79.2378 28.6878C79.2378 28.6109 79.2102 28.5556 79.153 28.526C79.0957 28.4964 79.0227 28.4767 78.9319 28.4668C78.8412 28.4569 78.7425 28.4471 78.6399 28.4372C78.5451 28.4273 78.4504 28.4135 78.3577 28.3958C78.2649 28.38 78.18 28.3504 78.1031 28.3089C78.0261 28.2675 77.9649 28.2063 77.9176 28.1254C77.8722 28.0445 77.8485 27.934 77.8485 27.7938C77.8485 27.557 77.9255 27.3774 78.0814 27.2551C78.2373 27.1327 78.4623 27.0696 78.7563 27.0696C78.9339 27.0696 79.1036 27.0952 79.2655 27.1446C79.4273 27.1939 79.5753 27.2669 79.7095 27.3656L79.3937 27.7485C79.2872 27.6833 79.1786 27.634 79.0681 27.6004C78.9596 27.5669 78.853 27.5491 78.7504 27.5491C78.6122 27.5491 78.5076 27.5689 78.4346 27.6083C78.3616 27.6478 78.3261 27.707 78.3261 27.784C78.3261 27.8412 78.3517 27.8826 78.4011 27.9083C78.4504 27.934 78.5175 27.9517 78.5984 27.9616C78.6793 27.9715 78.7681 27.9793 78.8609 27.9892C78.9596 27.9971 79.0582 28.0109 79.1589 28.0267C79.2595 28.0425 79.3503 28.0721 79.4352 28.1175C79.52 28.1629 79.5871 28.228 79.6384 28.3148C79.6898 28.4036 79.7154 28.524 79.7154 28.676C79.7154 28.9187 79.6325 29.1023 79.4687 29.2305C79.303 29.3568 79.0642 29.42 78.7484 29.42H78.7464Z" fill="#014547"/>
<path d="M81.032 29.42C80.7715 29.42 80.5742 29.3627 80.4439 29.2463C80.3137 29.1299 80.2466 28.9523 80.2466 28.7135C80.2466 28.4747 80.3117 28.3168 80.4439 28.2043C80.5762 28.0918 80.7735 28.0366 81.0379 28.0366H81.6497L81.6813 28.4451H81.0399C80.9353 28.4451 80.8584 28.4668 80.8051 28.5102C80.7538 28.5536 80.7261 28.6227 80.7261 28.7135C80.7261 28.8082 80.7597 28.8793 80.8268 28.9266C80.8939 28.974 80.9965 28.9957 81.1327 28.9957C81.2984 28.9957 81.4228 28.9779 81.5057 28.9404C81.5885 28.9029 81.628 28.8457 81.628 28.7687L81.6734 29.0944C81.6477 29.1693 81.6043 29.2305 81.5392 29.2779C81.4741 29.3253 81.3991 29.3608 81.3123 29.3845C81.2234 29.4081 81.1307 29.42 81.0281 29.42H81.032ZM81.63 29.3864V27.9379C81.63 27.8096 81.5925 27.711 81.5155 27.6399C81.4405 27.5689 81.334 27.5333 81.1958 27.5333C81.107 27.5333 81.0202 27.5472 80.9353 27.5748C80.8505 27.6024 80.7735 27.6419 80.7064 27.6932L80.3571 27.3991C80.4459 27.2946 80.5643 27.2136 80.7103 27.1564C80.8564 27.0992 81.0162 27.0696 81.1958 27.0696C81.4899 27.0696 81.7168 27.1446 81.8767 27.2926C82.0365 27.4406 82.1174 27.6498 82.1174 27.9201V29.3884H81.632L81.63 29.3864Z" fill="#014547"/>
<path d="M83.3941 26.1877V28.7177C83.3941 28.771 83.4079 28.8144 83.4355 28.846C83.4632 28.8776 83.5026 28.8914 83.554 28.8914H83.7099V29.3946H83.4237C83.2481 29.3946 83.1099 29.3413 83.0132 29.2368C82.9165 29.1322 82.8672 28.9822 82.8672 28.7907V26.1897H83.3941V26.1877Z" fill="#014547"/>
<path d="M85.6533 29.3887V26.1877H86.1802V29.3887H85.6533ZM85.9336 28.0586V27.5534H87.7551V28.0586H85.9336ZM87.4393 29.3887V26.1877H87.9662V29.3887H87.4393Z" fill="#014547"/>
<path d="M89.7405 29.4198C89.4169 29.4198 89.1643 29.3309 88.9847 29.1533C88.8051 28.9757 88.7163 28.7231 88.7163 28.3955V28.137C88.7163 27.7976 88.8031 27.5331 88.9748 27.3476C89.1465 27.1621 89.3893 27.0674 89.7011 27.0674C89.9951 27.0674 90.224 27.1759 90.3859 27.393C90.5477 27.6101 90.6286 27.914 90.6286 28.3067V28.4567H89.0755V28.0719H90.1392V28.0482C90.1234 27.8903 90.078 27.766 90.003 27.6772C89.928 27.5884 89.8274 27.543 89.7011 27.543C89.5432 27.543 89.4208 27.5923 89.334 27.691C89.2472 27.7897 89.2038 27.9298 89.2038 28.1133V28.4034C89.2038 28.5771 89.2511 28.7093 89.3439 28.8021C89.4386 28.8948 89.5688 28.9422 89.7405 28.9422C89.8274 28.9422 89.9122 28.9264 89.9971 28.8928C90.082 28.8593 90.1569 28.8139 90.224 28.7547L90.5674 29.0764C90.451 29.1849 90.3207 29.2698 90.1767 29.329C90.0326 29.3882 89.8866 29.4178 89.7405 29.4178V29.4198Z" fill="#014547"/>
<path d="M91.9891 29.42C91.7286 29.42 91.5312 29.3627 91.401 29.2463C91.2707 29.1299 91.2036 28.9523 91.2036 28.7135C91.2036 28.4747 91.2687 28.3168 91.401 28.2043C91.5332 28.0918 91.7305 28.0366 91.995 28.0366H92.6068L92.6383 28.4451H91.997C91.8924 28.4451 91.8154 28.4668 91.7621 28.5102C91.7108 28.5536 91.6832 28.6227 91.6832 28.7135C91.6832 28.8082 91.7167 28.8793 91.7838 28.9266C91.8509 28.974 91.9535 28.9957 92.0897 28.9957C92.2555 28.9957 92.3798 28.9779 92.4627 28.9404C92.5456 28.9029 92.585 28.8457 92.585 28.7687L92.6304 29.0944C92.6048 29.1693 92.5614 29.2305 92.4962 29.2779C92.4311 29.3253 92.3561 29.3608 92.2693 29.3845C92.1805 29.4081 92.0877 29.42 91.9851 29.42H91.9891ZM92.587 29.3864V27.9379C92.587 27.8096 92.5495 27.711 92.4726 27.6399C92.3976 27.5689 92.291 27.5333 92.1529 27.5333C92.064 27.5333 91.9772 27.5472 91.8924 27.5748C91.8075 27.6024 91.7305 27.6419 91.6634 27.6932L91.3141 27.3991C91.4029 27.2946 91.5213 27.2136 91.6674 27.1564C91.8134 27.0992 91.9733 27.0696 92.1529 27.0696C92.4469 27.0696 92.6738 27.1446 92.8337 27.2926C92.9936 27.4406 93.0745 27.6498 93.0745 27.9201V29.3884H92.589L92.587 29.3864Z" fill="#014547"/>
<path d="M94.3511 26.1877V28.7177C94.3511 28.771 94.3649 28.8144 94.3926 28.846C94.4202 28.8776 94.4597 28.8914 94.511 28.8914H94.6669V29.3946H94.3807C94.2051 29.3946 94.067 29.3413 93.9703 29.2368C93.8736 29.1322 93.8242 28.9822 93.8242 28.7907V26.1897H94.3511V26.1877Z" fill="#014547"/>
<path d="M95.0679 27.5629V27.1031H96.1414V27.5629H95.0679ZM95.8612 29.3982C95.6658 29.3982 95.5237 29.3469 95.4369 29.2423C95.3481 29.1377 95.3047 28.9877 95.3047 28.7924V26.436H95.8316V28.7193C95.8316 28.7746 95.8434 28.816 95.8651 28.8476C95.8869 28.8792 95.9204 28.893 95.9619 28.893H96.1434V29.3982H95.8612Z" fill="#014547"/>
<path d="M96.8257 29.3887V26.1877H97.3526V29.3887H96.8257ZM98.1795 29.3887V28.0033C98.1795 27.8652 98.142 27.7586 98.069 27.6856C97.9959 27.6106 97.8914 27.5751 97.7572 27.5751C97.623 27.5751 97.5282 27.6086 97.4572 27.6777C97.3861 27.7468 97.3506 27.8455 97.3506 27.9698L97.3052 27.4962C97.3723 27.36 97.4592 27.2554 97.5638 27.1804C97.6684 27.1054 97.7927 27.0699 97.9387 27.0699C98.1834 27.0699 98.3729 27.1508 98.5071 27.3126C98.6413 27.4744 98.7084 27.7034 98.7084 28.0014V29.3887H98.1815H98.1795Z" fill="#014547"/>
<path d="M100.401 29.42C100.081 29.42 99.8327 29.3312 99.6551 29.1516C99.4775 28.972 99.3906 28.7194 99.3906 28.3938V28.0839C99.3906 27.7603 99.4794 27.5116 99.6551 27.334C99.8307 27.1564 100.079 27.0696 100.401 27.0696C100.585 27.0696 100.75 27.1012 100.898 27.1643C101.046 27.2275 101.165 27.3182 101.252 27.4347L100.894 27.7682C100.835 27.705 100.766 27.6577 100.685 27.6222C100.604 27.5886 100.519 27.5708 100.431 27.5708C100.269 27.5708 100.143 27.6162 100.052 27.705C99.9629 27.7938 99.9175 27.9201 99.9175 28.082V28.3918C99.9175 28.5576 99.9629 28.6859 100.052 28.7766C100.141 28.8674 100.267 28.9128 100.431 28.9128C100.519 28.9128 100.606 28.895 100.685 28.8575C100.766 28.82 100.835 28.7687 100.894 28.7016L101.252 29.0588C101.163 29.1733 101.046 29.2621 100.896 29.3233C100.748 29.3864 100.583 29.416 100.401 29.416V29.42Z" fill="#014547"/>
<path d="M102.492 29.42C102.231 29.42 102.034 29.3627 101.904 29.2463C101.774 29.1299 101.707 28.9523 101.707 28.7135C101.707 28.4747 101.772 28.3168 101.904 28.2043C102.036 28.0918 102.233 28.0366 102.498 28.0366H103.11L103.141 28.4451H102.5C102.395 28.4451 102.318 28.4668 102.265 28.5102C102.214 28.5536 102.186 28.6227 102.186 28.7135C102.186 28.8082 102.22 28.8793 102.287 28.9266C102.354 28.974 102.456 28.9957 102.593 28.9957C102.758 28.9957 102.883 28.9779 102.966 28.9404C103.049 28.9029 103.088 28.8457 103.088 28.7687L103.133 29.0944C103.108 29.1693 103.064 29.2305 102.999 29.2779C102.934 29.3253 102.859 29.3608 102.772 29.3845C102.683 29.4081 102.591 29.42 102.488 29.42H102.492ZM103.09 29.3864V27.9379C103.09 27.8096 103.052 27.711 102.975 27.6399C102.9 27.5689 102.794 27.5333 102.656 27.5333C102.567 27.5333 102.48 27.5472 102.395 27.5748C102.31 27.6024 102.233 27.6419 102.166 27.6932L101.817 27.3991C101.906 27.2946 102.024 27.2136 102.17 27.1564C102.316 27.0992 102.476 27.0696 102.656 27.0696C102.95 27.0696 103.177 27.1446 103.337 27.2926C103.496 27.4406 103.577 27.6498 103.577 27.9201V29.3884H103.092L103.09 29.3864Z" fill="#014547"/>
<path d="M104.327 29.3886V27.1034H104.876V29.3886H104.327ZM105.6 27.6914C105.566 27.654 105.523 27.6244 105.472 27.6046C105.42 27.5849 105.359 27.575 105.292 27.575C105.16 27.575 105.057 27.6145 104.984 27.6934C104.911 27.7724 104.876 27.8809 104.876 28.021L104.83 27.504C104.896 27.3698 104.982 27.2632 105.089 27.1862C105.195 27.1093 105.312 27.0718 105.44 27.0718C105.541 27.0718 105.63 27.0876 105.711 27.1172C105.791 27.1468 105.862 27.1922 105.922 27.2514L105.6 27.6934V27.6914Z" fill="#014547"/>
<path d="M107.278 29.4198C106.954 29.4198 106.701 29.3309 106.522 29.1533C106.342 28.9757 106.253 28.7231 106.253 28.3955V28.137C106.253 27.7976 106.34 27.5331 106.512 27.3476C106.684 27.1621 106.926 27.0674 107.238 27.0674C107.532 27.0674 107.761 27.1759 107.923 27.393C108.085 27.6101 108.166 27.914 108.166 28.3067V28.4567H106.613V28.0719H107.676V28.0482C107.661 27.8903 107.615 27.766 107.54 27.6772C107.465 27.5884 107.364 27.543 107.238 27.543C107.08 27.543 106.958 27.5923 106.871 27.691C106.784 27.7897 106.741 27.9298 106.741 28.1133V28.4034C106.741 28.5771 106.788 28.7093 106.881 28.8021C106.976 28.8948 107.106 28.9422 107.278 28.9422C107.364 28.9422 107.449 28.9264 107.534 28.8928C107.619 28.8593 107.694 28.8139 107.761 28.7547L108.105 29.0764C107.988 29.1849 107.858 29.2698 107.714 29.329C107.57 29.3882 107.424 29.4178 107.278 29.4178V29.4198Z" fill="#014547"/>
<path d="M109.91 29.3887L111.112 26.1877H111.494L112.696 29.3887H112.13L111.303 27.0048L110.476 29.3887H109.91ZM110.476 28.7809V28.2757H112.159V28.7809H110.476Z" fill="#014547"/>
<path d="M113.206 30.3159V27.1012H113.732V30.3159H113.206ZM114.285 29.42C114.147 29.42 114.027 29.3864 113.926 29.3174C113.825 29.2483 113.75 29.1516 113.701 29.0273L113.732 28.528C113.732 28.6148 113.748 28.6878 113.778 28.749C113.807 28.8102 113.853 28.8575 113.912 28.8891C113.971 28.9207 114.042 28.9385 114.125 28.9385C114.255 28.9385 114.356 28.897 114.429 28.8141C114.502 28.7312 114.538 28.6148 114.538 28.4648V28.0366C114.538 27.8827 114.502 27.7623 114.429 27.6794C114.358 27.5945 114.255 27.5531 114.125 27.5531C114.042 27.5531 113.969 27.5689 113.912 27.6004C113.853 27.632 113.809 27.6774 113.778 27.7386C113.746 27.7998 113.732 27.8748 113.732 27.9616L113.687 27.488C113.754 27.3538 113.839 27.2511 113.946 27.1781C114.052 27.1051 114.169 27.0696 114.299 27.0696C114.544 27.0696 114.733 27.1544 114.867 27.3222C115.001 27.4899 115.069 27.7267 115.069 28.0346V28.4668C115.069 28.7707 115.001 29.0056 114.865 29.1733C114.729 29.341 114.538 29.4239 114.289 29.4239L114.285 29.42Z" fill="#014547"/>
<path d="M115.771 30.3159V27.1012H116.297V30.3159H115.771ZM116.85 29.42C116.712 29.42 116.591 29.3864 116.491 29.3174C116.39 29.2483 116.315 29.1516 116.266 29.0273L116.297 28.528C116.297 28.6148 116.313 28.6878 116.343 28.749C116.372 28.8102 116.418 28.8575 116.477 28.8891C116.536 28.9207 116.607 28.9385 116.69 28.9385C116.82 28.9385 116.921 28.897 116.994 28.8141C117.067 28.7312 117.103 28.6148 117.103 28.4648V28.0366C117.103 27.8827 117.067 27.7623 116.994 27.6794C116.923 27.5945 116.82 27.5531 116.69 27.5531C116.607 27.5531 116.534 27.5689 116.477 27.6004C116.418 27.632 116.374 27.6774 116.343 27.7386C116.311 27.7998 116.297 27.8748 116.297 27.9616L116.252 27.488C116.319 27.3538 116.404 27.2511 116.511 27.1781C116.617 27.1051 116.734 27.0696 116.864 27.0696C117.109 27.0696 117.298 27.1544 117.432 27.3222C117.566 27.4899 117.633 27.7267 117.633 28.0346V28.4668C117.633 28.7707 117.566 29.0056 117.43 29.1733C117.294 29.341 117.103 29.4239 116.854 29.4239L116.85 29.42Z" fill="#014547"/>
<path d="M118.861 26.1877V28.7177C118.861 28.771 118.875 28.8144 118.902 28.846C118.93 28.8776 118.969 28.8914 119.021 28.8914H119.177V29.3946H118.891C118.715 29.3946 118.577 29.3413 118.48 29.2368C118.383 29.1322 118.334 28.9822 118.334 28.7907V26.1897H118.861V26.1877Z" fill="#014547"/>
<path d="M119.737 26.7125V26.1855H120.262V26.7125H119.737ZM119.737 29.3865V27.1012H120.262V29.3865H119.737Z" fill="#014547"/>
<path d="M121.942 29.42C121.622 29.42 121.373 29.3312 121.196 29.1516C121.018 28.972 120.931 28.7194 120.931 28.3938V28.0839C120.931 27.7603 121.02 27.5116 121.196 27.334C121.371 27.1564 121.62 27.0696 121.942 27.0696C122.125 27.0696 122.291 27.1012 122.439 27.1643C122.587 27.2275 122.705 27.3182 122.792 27.4347L122.435 27.7682C122.376 27.705 122.307 27.6577 122.226 27.6222C122.145 27.5886 122.06 27.5708 121.971 27.5708C121.809 27.5708 121.683 27.6162 121.592 27.705C121.503 27.7938 121.458 27.9201 121.458 28.082V28.3918C121.458 28.5576 121.503 28.6859 121.592 28.7766C121.681 28.8674 121.807 28.9128 121.971 28.9128C122.06 28.9128 122.147 28.895 122.226 28.8575C122.307 28.82 122.376 28.7687 122.435 28.7016L122.792 29.0588C122.703 29.1733 122.587 29.2621 122.437 29.3233C122.289 29.3864 122.123 29.416 121.942 29.416V29.42Z" fill="#014547"/>
<path d="M124.033 29.42C123.772 29.42 123.575 29.3627 123.444 29.2463C123.314 29.1299 123.247 28.9523 123.247 28.7135C123.247 28.4747 123.312 28.3168 123.444 28.2043C123.577 28.0918 123.774 28.0366 124.038 28.0366H124.65L124.682 28.4451H124.04C123.936 28.4451 123.859 28.4668 123.806 28.5102C123.754 28.5536 123.727 28.6227 123.727 28.7135C123.727 28.8082 123.76 28.8793 123.827 28.9266C123.894 28.974 123.997 28.9957 124.133 28.9957C124.299 28.9957 124.423 28.9779 124.506 28.9404C124.589 28.9029 124.628 28.8457 124.628 28.7687L124.674 29.0944C124.648 29.1693 124.605 29.2305 124.54 29.2779C124.475 29.3253 124.4 29.3608 124.313 29.3845C124.224 29.4081 124.131 29.42 124.029 29.42H124.033ZM124.63 29.3864V27.9379C124.63 27.8096 124.593 27.711 124.516 27.6399C124.441 27.5689 124.334 27.5333 124.196 27.5333C124.108 27.5333 124.021 27.5472 123.936 27.5748C123.851 27.6024 123.774 27.6419 123.707 27.6932L123.358 27.3991C123.446 27.2946 123.565 27.2136 123.711 27.1564C123.857 27.0992 124.017 27.0696 124.196 27.0696C124.49 27.0696 124.717 27.1446 124.877 27.2926C125.037 27.4406 125.118 27.6498 125.118 27.9201V29.3884H124.632L124.63 29.3864Z" fill="#014547"/>
<path d="M125.692 27.5629V27.1031H126.765V27.5629H125.692ZM126.485 29.3982C126.29 29.3982 126.148 29.3469 126.061 29.2423C125.972 29.1377 125.929 28.9877 125.929 28.7924V26.436H126.456V28.7193C126.456 28.7746 126.467 28.816 126.489 28.8476C126.511 28.8792 126.544 28.893 126.586 28.893H126.767V29.3982H126.485Z" fill="#014547"/>
<path d="M127.437 26.7125V26.1855H127.961V26.7125H127.437ZM127.437 29.3865V27.1012H127.961V29.3865H127.437Z" fill="#014547"/>
<path d="M129.592 29.4198C129.287 29.4198 129.048 29.3329 128.88 29.1593C128.712 28.9856 128.627 28.7409 128.627 28.4251V28.0521C128.627 27.7403 128.712 27.4976 128.88 27.3259C129.048 27.1542 129.285 27.0674 129.592 27.0674C129.9 27.0674 130.137 27.1542 130.305 27.3259C130.473 27.4976 130.557 27.7403 130.557 28.0521V28.431C130.557 28.7448 130.473 28.9876 130.305 29.1612C130.137 29.3329 129.9 29.4198 129.592 29.4198ZM129.592 28.9165C129.733 28.9165 129.839 28.8731 129.916 28.7882C129.993 28.7034 130.031 28.585 130.031 28.431V28.0521C130.031 27.9002 129.993 27.7818 129.916 27.6969C129.839 27.614 129.733 27.5706 129.592 27.5706C129.452 27.5706 129.348 27.6121 129.271 27.6969C129.194 27.7798 129.154 27.8982 129.154 28.0521V28.431C129.154 28.583 129.194 28.7034 129.271 28.7882C129.348 28.8731 129.454 28.9165 129.592 28.9165Z" fill="#014547"/>
<path d="M131.264 29.3884V27.1031H131.791V29.3884H131.264ZM132.618 29.3884V28.003C132.618 27.8649 132.58 27.7583 132.507 27.6853C132.434 27.6103 132.33 27.5748 132.196 27.5748C132.061 27.5748 131.967 27.6103 131.896 27.6814C131.825 27.7524 131.789 27.8491 131.789 27.9754L131.744 27.5018C131.811 27.3636 131.898 27.2571 132.002 27.1821C132.107 27.1071 132.231 27.0696 132.377 27.0696C132.622 27.0696 132.811 27.1505 132.946 27.3123C133.08 27.4741 133.147 27.7031 133.147 28.0011V29.3884H132.62H132.618Z" fill="#014547"/>
</g>
<defs>
<clipPath id="clip0_453_636">
<rect width="133.146" height="36" fill="white"/>
</clipPath>
</defs>
</svg>
